<svg width="343" height="343" viewBox="0 0 343 343" fill="none" xmlns="http://www.w3.org/2000/svg">
<g clip-path="url(#clip0_569_5653)">
<path d="M343 0H0V343H343V0Z" fill="white"/>
<path d="M76.2995 27.204C58.9886 34.6269 93.4993 89.0615 112.919 115.351C90.7251 110.712 46.3381 105.763 46.3381 123.083C46.3381 140.403 81.8478 154.012 99.6026 158.651C70.1963 172.054 14.7129 202.57 28.0289 217.416C41.345 232.262 97.9381 206.075 124.57 191.126C105.151 228.241 72.9705 306.181 99.6026 321.027C126.235 335.873 161.744 263.293 176.17 225.148C180.054 236.489 191.816 259.17 207.795 259.17C223.774 259.17 216.673 227.21 211.124 211.23C231.098 233.396 276.04 274.015 296.014 259.17C315.988 244.324 271.046 203.498 246.079 184.941C263.279 184.425 298.011 179.373 299.343 163.29C300.675 147.207 268.827 146.28 252.737 147.826C281.588 135.455 336.295 104.835 324.31 81.3293C312.326 57.8235 254.956 82.8757 227.769 98.34C232.208 86.9995 238.422 63.0812 227.769 58.1326C217.116 53.184 196.699 73.597 187.821 84.4221C187.266 65.3494 181.496 26.5853 162.854 24.1108C144.211 21.6363 142.88 61.2254 144.544 81.3293C129.009 60.1946 93.6103 19.7811 76.2995 27.204Z" fill="#E4DEF2"/>
<path d="M82.5 294C118.122 294 147 265.122 147 229.5C147 193.878 118.122 165 82.5 165C46.8776 165 18 193.878 18 229.5C18 265.122 46.8776 294 82.5 294Z" fill="#4A25A9"/>
<path d="M76.6028 217.307L84.802 186.136H102.542L95.6845 212.137H100.753L76.3047 249.542L82.5659 217.307H76.6028Z" fill="white"/>
<path d="M110.128 201.273L118.327 170.101H136.067L129.21 196.103H134.278L109.83 233.508L116.091 201.273H110.128Z" fill="white"/>
<path d="M110.195 252.093H83.5933V271.771L110.195 252.093Z" fill="white"/>
<path d="M219.365 151.5C248.562 151.5 272.23 127.832 272.23 98.635C272.23 69.4385 248.562 45.77 219.365 45.77C190.168 45.77 166.5 69.4385 166.5 98.635C166.5 127.832 190.168 151.5 219.365 151.5Z" fill="white" stroke="#4A25A9" stroke-width="3"/>
<path d="M228.432 75.9651L219.235 41H199.335L207.028 70.166H201.342L228.766 112.124L221.743 75.9651H228.432Z" fill="#4A25A9"/>
<path d="M201.454 95.5854L192.257 60.6204H172.358L180.05 89.7864H174.365L201.789 131.744L194.765 95.5854H201.454Z" fill="#4A25A9"/>
<path d="M212.698 129.549C213.858 133.04 216.062 140.061 224.867 137.136C233.672 134.212 230.851 127.396 229.498 123.969" stroke="#4A25A9" stroke-width="4"/>
<path d="M269 245C291.091 245 309 227.091 309 205C309 182.909 291.091 165 269 165C246.909 165 229 182.909 229 205C229 227.091 246.909 245 269 245Z" fill="#4A25A9"/>
<path d="M260.852 198.731L256.79 183H248L251.398 196.122H248.886L261 215L257.898 198.731H260.852Z" fill="white"/>
<path d="M248.852 207.731L244.79 192H236L239.398 205.122H236.886L249 224L245.898 207.731H248.852Z" fill="white"/>
<path d="M31 41.8241C33.5347 42.7621 39.2476 43.794 41.8213 40.4171C44.3951 37.0402 44.8435 26.0653 44.746 21C45.2335 26.3467 47.3197 37.2653 51.7653 38.1658C56.2108 39.0663 62.0017 33.2881 64.3414 30.2864C62.0017 33.2881 58.1996 40.3045 61.7092 44.3568C64.6522 47.7548 68.6637 47.5647 73.2738 46.8063C74.141 46.5714 75.0467 46.4148 76 46.3266C75.0713 46.4932 74.1615 46.6603 73.2738 46.8063C69.5296 47.8209 66.5036 50.2977 63.464 55.0502C60.1895 60.1701 63.986 69.395 67.1418 74.8907C67.6292 75.6535 68.0647 76.3661 68.436 77C68.0329 76.3888 67.5939 75.678 67.1418 74.8907C63.6623 69.4448 57.5374 61.4387 53.2276 61.2412C49.2245 61.0578 45.4672 66.8393 43.3161 71.3721C42.9091 72.423 42.4904 73.3888 42.1138 74.1859C42.4209 73.3691 42.827 72.4029 43.3161 71.3721C45.0165 66.9818 46.5116 61.1057 43.8686 59.8342C40.593 58.2583 35.0946 59.1776 32.7548 59.8342C34.6071 58.1457 38.2532 53.9246 38.0192 50.5477C37.7853 47.1709 33.2423 43.325 31 41.8241Z" fill="#C7BBE4"/>
<path d="M241 264.271C242.521 264.824 245.949 265.432 247.493 263.442C249.037 261.452 249.306 254.985 249.248 252C249.54 255.151 250.792 261.585 253.459 262.116C256.126 262.646 259.601 259.241 261.005 257.472C259.601 259.241 257.32 263.376 259.426 265.764C261.191 267.766 263.598 267.654 266.364 267.207C266.885 267.069 267.428 266.977 268 266.925C267.443 267.023 266.897 267.121 266.364 267.207C264.118 267.805 262.302 269.265 260.478 272.065C258.514 275.082 260.792 280.518 262.685 283.757C262.978 284.207 263.239 284.626 263.462 285C263.22 284.64 262.956 284.221 262.685 283.757C260.597 280.548 256.922 275.83 254.337 275.714C251.935 275.605 249.68 279.012 248.39 281.684C248.145 282.303 247.894 282.872 247.668 283.342C247.853 282.86 248.096 282.291 248.39 281.684C249.41 279.096 250.307 275.634 248.721 274.884C246.756 273.956 243.457 274.497 242.053 274.884C243.164 273.889 245.352 271.402 245.212 269.412C245.071 267.422 242.345 265.156 241 264.271Z" fill="#C7BBE4"/>
<path d="M281 69.9246C282.07 70.3266 284.482 70.7688 285.569 69.3216C286.656 67.8744 286.845 63.1709 286.804 61C287.01 63.2915 287.891 67.9709 289.768 68.3568C291.645 68.7427 294.09 66.2663 295.077 64.9799C294.09 66.2663 292.484 69.2734 293.966 71.0101C295.209 72.4663 296.902 72.3849 298.849 72.0599C299.215 71.9592 299.597 71.8921 300 71.8543C299.608 71.9257 299.224 71.9973 298.849 72.0599C297.268 72.4947 295.99 73.5562 294.707 75.593C293.324 77.7872 294.927 81.7407 296.26 84.096C296.466 84.4229 296.65 84.7283 296.806 85C296.636 84.7381 296.451 84.4334 296.26 84.096C294.791 81.762 292.205 78.3309 290.385 78.2462C288.695 78.1676 287.108 80.6454 286.2 82.5881C286.028 83.0384 285.851 83.4523 285.692 83.794C285.822 83.4439 285.994 83.0298 286.2 82.5881C286.918 80.7065 287.549 78.1882 286.433 77.6432C285.05 76.9678 282.729 77.3618 281.741 77.6432C282.523 76.9196 284.062 75.1106 283.964 73.6633C283.865 72.2161 281.947 70.5678 281 69.9246Z" fill="#C7BBE4"/>
</g>
<defs>
<clipPath id="clip0_569_5653">
<rect width="343" height="343" fill="white"/>
</clipPath>
</defs>
</svg>
