<svg width="96" height="96" viewBox="0 0 96 96" fill="none" xmlns="http://www.w3.org/2000/svg">
<g clip-path="url(#clip0_569_5866)">
<mask id="mask0_569_5866" style="mask-type:luminance" maskUnits="userSpaceOnUse" x="0" y="0" width="96" height="96">
<path d="M96 0H0V96H96V0Z" fill="white"/>
</mask>
<g mask="url(#mask0_569_5866)">
<path d="M46.6096 83.7334C68.1435 83.7334 85.6001 66.2768 85.6001 44.7429C85.6001 23.2091 68.1435 5.75244 46.6096 5.75244C25.0758 5.75244 7.61914 23.2091 7.61914 44.7429C7.61914 66.2768 25.0758 83.7334 46.6096 83.7334Z" fill="#C7BBE4"/>
<path d="M29.5187 35.4265L33.2969 20.8647H41.4714L38.3115 33.0114H40.6471L29.3813 50.4854L32.2665 35.4265H29.5187Z" fill="white"/>
<path d="M51.2814 35.4265L55.0596 20.8647H63.2341L60.0742 33.0114H62.4098L51.144 50.4854L54.0292 35.4265H51.2814Z" fill="white"/>
<path d="M45.7022 68.6211L35.7554 56.3799H55.649L45.7022 68.6211Z" fill="white"/>
<path d="M2.3999 77.5396C3.30114 77.8612 5.33239 78.215 6.24749 77.0572C7.16259 75.8994 7.32204 72.1366 7.28738 70.3999C7.46069 72.2331 8.20248 75.9766 9.78311 76.2854C11.3637 76.5941 13.4227 74.613 14.2546 73.5838C13.4227 74.613 12.0709 77.0186 13.3187 78.408C14.3651 79.573 15.7914 79.5078 17.4306 79.2478C17.7389 79.1672 18.0609 79.1136 18.3999 79.0833C18.0697 79.1405 17.7462 79.1977 17.4306 79.2478C16.0993 79.5956 15.0234 80.4448 13.9427 82.0743C12.7784 83.8297 14.1282 86.9925 15.2503 88.8767C15.4236 89.1383 15.5785 89.3826 15.7105 89.5999C15.5671 89.3904 15.4111 89.1467 15.2503 88.8767C14.0132 87.0096 11.8354 84.2646 10.3031 84.1969C8.87971 84.134 7.5438 86.1163 6.77897 87.6704C6.63426 88.0307 6.48537 88.3618 6.35148 88.6351C6.46065 88.3551 6.60505 88.0238 6.77897 87.6704C7.38354 86.1651 7.91515 84.1504 6.97541 83.7145C5.81074 83.1742 3.85575 83.4894 3.02384 83.7145C3.68243 83.1356 4.97883 81.6884 4.89563 80.5306C4.81244 79.3728 3.19715 78.0542 2.3999 77.5396Z" fill="#C7BBE4"/>
<path d="M2.3999 64.3697C2.85052 64.5305 3.86615 64.7074 4.3237 64.1285C4.78125 63.5496 4.86097 61.6682 4.84364 60.7998C4.9303 61.7164 5.30119 63.5882 6.09151 63.7426C6.88182 63.8969 7.91131 62.9064 8.32727 62.3918C7.91131 62.9064 7.23538 64.1092 7.85932 64.8039C8.38251 65.3864 9.09567 65.3538 9.91525 65.2238C10.0694 65.1835 10.2304 65.1567 10.3999 65.1416C10.2348 65.1701 10.0731 65.1988 9.91525 65.2238C9.24961 65.3977 8.71166 65.8223 8.17128 66.637C7.58915 67.5147 8.26407 69.0961 8.82511 70.0383C8.91176 70.169 8.98918 70.2912 9.05519 70.3998C8.98352 70.2951 8.90548 70.1732 8.82511 70.0383C8.20653 69.1047 7.11766 67.7322 6.35148 67.6983C5.63981 67.6669 4.97185 68.658 4.58944 69.4351C4.51708 69.6152 4.44264 69.7808 4.37569 69.9174C4.43028 69.7774 4.50247 69.6118 4.58944 69.4351C4.89172 68.6824 5.15752 67.6751 4.68766 67.4571C4.10532 67.187 3.12782 67.3446 2.71187 67.4571C3.04117 67.1677 3.68936 66.4441 3.64777 65.8652C3.60617 65.2863 2.79853 64.627 2.3999 64.3697Z" fill="white"/>
<path d="M62.5356 74.0691C64.3544 74.0052 68.1895 73.2009 68.9792 70.4947C69.769 67.7884 67.3708 60.98 66.073 57.9141C67.6841 61.0539 71.6583 67.1917 74.6664 66.6253C77.6745 66.059 79.8958 61.0802 80.6305 58.6616C79.8958 61.0802 79.2242 66.3152 82.4148 67.9067C85.0902 69.2412 87.5598 68.1183 90.2662 66.4986C90.7527 66.1376 91.2825 65.8147 91.8589 65.5217C91.3171 65.8564 90.7872 66.1867 90.2662 66.4986C88.1655 68.0573 86.8723 70.3279 86.1262 73.9904C85.3224 77.9359 89.9558 82.6112 93.2769 85.1721C93.7688 85.5151 94.2159 85.8406 94.6036 86.1341C94.2015 85.8624 93.7527 85.5389 93.2769 85.1721C89.7649 82.7228 83.9687 79.3755 81.2174 80.3367C78.6619 81.2296 77.7168 85.6999 77.4744 89.0053C77.4757 89.7486 77.4488 90.443 77.4072 91.0238C77.4004 90.4484 77.4192 89.757 77.4744 89.0053C77.4689 85.9 76.9721 81.9397 75.0039 81.8273C72.5647 81.688 69.3405 83.6289 68.0333 84.6167C68.7829 83.1217 70.0391 79.6312 69.0679 77.6297C68.0967 75.6282 64.3084 74.422 62.5356 74.0691Z" fill="#A492D4"/>
<path d="M80.6801 1.7544C79.8954 2.11189 81.4599 4.73349 82.3402 5.99961C81.3341 5.77617 79.3219 5.53784 79.3219 6.37199C79.3219 7.20613 80.9317 7.86153 81.7366 8.08497C80.4035 8.73044 77.8882 10.2001 78.4919 10.9151C79.0955 11.6301 81.6611 10.3689 82.8684 9.64899C81.9881 11.4364 80.5292 15.1901 81.7366 15.9051C82.9439 16.62 84.5536 13.1246 85.2076 11.2875C85.3837 11.8336 85.9169 12.926 86.6413 12.926C87.3657 12.926 87.0437 11.3868 86.7922 10.6172C87.6977 11.6847 89.735 13.641 90.6405 12.926C91.546 12.211 89.5087 10.2448 88.3768 9.35108C89.1565 9.32625 90.7311 9.08296 90.7914 8.3084C90.8518 7.53383 89.4081 7.48915 88.6786 7.56363C89.9866 6.96781 92.4666 5.49316 91.9233 4.36111C91.38 3.22905 88.7792 4.43558 87.5468 5.18035C87.748 4.63418 88.0297 3.48227 87.5468 3.24394C87.0638 3.00561 86.1382 3.98872 85.7358 4.51006C85.7106 3.5915 85.4491 1.72461 84.6039 1.60543C83.7588 1.48626 83.6984 3.39289 83.7739 4.36111C83.0696 3.34325 81.4649 1.39691 80.6801 1.7544Z" fill="#C7BBE4"/>
</g>
</g>
<defs>
<clipPath id="clip0_569_5866">
<rect width="96" height="96" fill="white"/>
</clipPath>
</defs>
</svg>
