<svg width="120" height="120" viewBox="0 0 120 120" fill="none" xmlns="http://www.w3.org/2000/svg">
<g clip-path="url(#clip0_569_5755)">
<mask id="mask0_569_5755" style="mask-type:luminance" maskUnits="userSpaceOnUse" x="0" y="0" width="120" height="120">
<path d="M120 0H0V120H120V0Z" fill="white"/>
</mask>
<g mask="url(#mask0_569_5755)">
<path d="M58.262 104.667C85.1793 104.667 107 82.8458 107 55.9285C107 29.0112 85.1793 7.19043 58.262 7.19043C31.3447 7.19043 9.52393 29.0112 9.52393 55.9285C9.52393 82.8458 31.3447 104.667 58.262 104.667Z" fill="#4A25A9"/>
<path d="M36.8983 44.2832L41.621 26.0811H51.8392L47.8893 41.2643H50.8087L36.7266 63.1069L40.333 44.2832H36.8983Z" fill="white"/>
<path d="M64.1014 44.2832L68.8241 26.0811H79.0423L75.0924 41.2643H78.0119L63.9297 63.1069L67.5361 44.2832H64.1014Z" fill="white"/>
<path d="M57.1278 85.7761L44.6943 70.4746H69.5613L57.1278 85.7761Z" fill="white"/>
<path d="M3 96.9246C4.12655 97.3266 6.66561 97.7688 7.80948 96.3216C8.95336 94.8744 9.15267 90.1709 9.10934 88C9.32599 90.2915 10.2532 94.9709 12.229 95.3568C14.2048 95.7427 16.7785 93.2663 17.8184 91.9799C16.7785 93.2663 15.0887 96.2734 16.6485 98.0101C17.9565 99.4663 19.7394 99.3849 21.7884 99.0599C22.1738 98.9592 22.5763 98.8921 23 98.8543C22.5873 98.9257 22.1829 98.9973 21.7884 99.0599C20.1243 99.4947 18.7794 100.556 17.4285 102.593C15.9731 104.787 17.6604 108.741 19.063 111.096C19.2796 111.423 19.4732 111.728 19.6382 112C19.459 111.738 19.264 111.433 19.063 111.096C17.5166 108.762 14.7944 105.331 12.8789 105.246C11.0998 105.168 9.42987 107.645 8.47383 109.588C8.29295 110.038 8.10683 110.452 7.93947 110.794C8.07594 110.444 8.25643 110.03 8.47383 109.588C9.22954 107.706 9.89406 105.188 8.71939 104.643C7.26354 103.968 4.8198 104.362 3.77992 104.643C4.60316 103.92 6.22365 102.111 6.11967 100.663C6.01568 99.2161 3.99656 97.5678 3 96.9246Z" fill="#C7BBE4"/>
<path d="M3 80.4623C3.56327 80.6633 4.8328 80.8844 5.40474 80.1608C5.97668 79.4372 6.07634 77.0854 6.05467 76C6.16299 77.1457 6.62661 79.4854 7.6145 79.6784C8.6024 79.8714 9.88926 78.6332 10.4092 77.9899C9.88926 78.6332 9.04435 80.1367 9.82427 81.005C10.4783 81.7332 11.3697 81.6924 12.3942 81.5299C12.5869 81.4796 12.7882 81.446 13 81.4271C12.7936 81.4628 12.5914 81.4986 12.3942 81.5299C11.5621 81.7473 10.8897 82.2781 10.2142 83.2965C9.48656 84.3936 10.3302 86.3703 11.0315 87.548C11.1398 87.7115 11.2366 87.8642 11.3191 88C11.2295 87.869 11.132 87.7167 11.0315 87.548C10.2583 86.381 8.8972 84.6654 7.93947 84.6231C7.04988 84.5838 6.21494 85.8227 5.73692 86.794C5.64647 87.0192 5.55342 87.2262 5.46973 87.397C5.53797 87.222 5.62822 87.0149 5.73692 86.794C6.11477 85.8532 6.44703 84.5941 5.85969 84.3216C5.13177 83.9839 3.9099 84.1809 3.38996 84.3216C3.80158 83.9598 4.61183 83.0553 4.55983 82.3317C4.50784 81.608 3.49828 80.7839 3 80.4623Z" fill="white"/>
<path d="M78.1694 92.5864C80.4429 92.5065 85.2367 91.5011 86.224 88.1183C87.2112 84.7355 84.2134 76.225 82.5911 72.3926C84.605 76.3173 89.5729 83.9896 93.333 83.2816C97.0931 82.5737 99.8697 76.3502 100.788 73.327C99.8697 76.3502 99.0302 82.894 103.019 84.8833C106.363 86.5514 109.45 85.1479 112.833 83.1232C113.441 82.6719 114.103 82.2684 114.824 81.902C114.147 82.3204 113.484 82.7333 112.833 83.1232C110.207 85.0716 108.591 87.9098 107.658 92.4879C106.653 97.4198 112.445 103.264 116.596 106.465C117.211 106.894 117.77 107.301 118.255 107.668C117.752 107.328 117.191 106.924 116.596 106.465C112.206 103.404 104.961 99.2193 101.522 100.421C98.3272 101.537 97.146 107.125 96.8429 111.257C96.8445 112.186 96.8109 113.054 96.759 113.78C96.7504 113.061 96.774 112.196 96.8429 111.257C96.8361 107.375 96.215 102.425 93.7548 102.284C90.7058 102.11 86.6756 104.536 85.0416 105.771C85.9785 103.902 87.5489 99.539 86.3348 97.0371C85.1208 94.5352 80.3854 93.0275 78.1694 92.5864Z" fill="#A492D4"/>
<path d="M100.85 2.19288C99.8694 2.63974 101.825 5.91675 102.925 7.49939C101.668 7.2201 99.1525 6.92218 99.1525 7.96487C99.1525 9.00755 101.165 9.8268 102.171 10.1061C100.504 10.9129 97.3604 12.75 98.115 13.6438C98.8695 14.5375 102.076 12.9611 103.586 12.0611C102.485 14.2954 100.662 18.9875 102.171 19.8812C103.68 20.775 105.692 16.4056 106.51 14.1092C106.73 14.792 107.396 16.1574 108.302 16.1574C109.207 16.1574 108.805 14.2334 108.49 13.2714C109.622 14.6058 112.169 17.0511 113.301 16.1574C114.433 15.2636 111.886 12.8059 110.471 11.6887C111.446 11.6577 113.414 11.3536 113.489 10.3854C113.565 9.41717 111.76 9.36131 110.848 9.45441C112.483 8.70964 115.583 6.86633 114.904 5.45126C114.225 4.0362 110.974 5.54436 109.434 6.47532C109.685 5.79261 110.037 4.35272 109.434 4.05481C108.83 3.7569 107.673 4.98577 107.17 5.63745C107.138 4.48926 106.811 2.15564 105.755 2.00667C104.699 1.8577 104.623 4.24099 104.718 5.45126C103.837 4.17894 101.831 1.74602 100.85 2.19288Z" fill="#C7BBE4"/>
</g>
</g>
<defs>
<clipPath id="clip0_569_5755">
<rect width="120" height="120" fill="white"/>
</clipPath>
</defs>
</svg>
