<svg width="28" height="14" viewBox="0 0 28 14" fill="none" xmlns="http://www.w3.org/2000/svg">
<g opacity="0.3">
<path d="M1.41598 1.77772C0.75 2.78661 0.75 4.19108 0.75 7C0.75 9.80892 0.75 11.2134 1.41598 12.2223C1.70429 12.659 2.07477 13.034 2.50625 13.3259C3.50297 14 4.89047 14 7.66548 14H18.5327C21.3077 14 22.6952 14 23.6919 13.3259C24.1234 13.034 24.4938 12.659 24.7822 12.2223C25.4481 11.2134 25.4481 9.80892 25.4481 7C25.4481 4.19108 25.4481 2.78661 24.7822 1.77772C24.4938 1.34096 24.1234 0.965956 23.6919 0.674122C22.6952 0 21.3077 0 18.5327 0H7.66548C4.89047 0 3.50297 0 2.50625 0.674122C2.07477 0.965956 1.70429 1.34096 1.41598 1.77772Z" fill="black"/>
<path d="M27.75 6.75C27.75 7.62313 27.2322 8.41122 26.4361 8.75V4.75C27.2322 5.08878 27.75 5.87687 27.75 6.75Z" fill="black"/>
</g>
<path d="M0.75 7C0.75 4.19108 0.75 2.78661 1.42412 1.77772C1.71596 1.34096 2.09096 0.965956 2.52772 0.674122C3.53661 0 4.94108 0 7.75 0H10.6293V14H7.75C4.94108 14 3.53661 14 2.52772 13.3259C2.09096 13.034 1.71596 12.659 1.42412 12.2223C0.75 11.2134 0.75 9.80892 0.75 7Z" fill="#F7CE45"/>
<path d="M10.4604 11.1719C9.87679 11.1719 9.36475 11.0752 8.92432 10.8818C8.48747 10.6849 8.14193 10.4128 7.8877 10.0654C7.63346 9.71452 7.48665 9.30811 7.44727 8.84619L7.44189 8.77637H8.99414L8.99951 8.83545C9.02458 9.03597 9.09798 9.21501 9.21973 9.37256C9.34505 9.52653 9.51335 9.64827 9.72461 9.73779C9.93587 9.82373 10.1812 9.8667 10.4604 9.8667C10.7362 9.8667 10.9761 9.82015 11.1802 9.72705C11.3879 9.63037 11.5472 9.49788 11.6582 9.32959C11.7728 9.1613 11.8301 8.96794 11.8301 8.74951V8.73877C11.8301 8.36637 11.6976 8.08171 11.4326 7.88477C11.1712 7.68783 10.806 7.58936 10.3369 7.58936H9.45068V6.43457H10.3154C10.5876 6.43457 10.8239 6.38981 11.0244 6.30029C11.2249 6.21077 11.3807 6.08724 11.4917 5.92969C11.6027 5.76855 11.6582 5.58415 11.6582 5.37646V5.36572C11.6582 5.15088 11.6099 4.96647 11.5132 4.8125C11.4201 4.65495 11.2822 4.53499 11.0996 4.45264C10.9206 4.3667 10.7039 4.32373 10.4497 4.32373C10.1955 4.32373 9.97168 4.3667 9.77832 4.45264C9.58496 4.53857 9.43099 4.66211 9.31641 4.82324C9.20182 4.98079 9.13379 5.16699 9.1123 5.38184L9.10693 5.43018H7.61377L7.61914 5.36572C7.65853 4.90023 7.79818 4.4974 8.03809 4.15723C8.28158 3.81348 8.60742 3.5485 9.01562 3.3623C9.42741 3.17253 9.90544 3.07764 10.4497 3.07764C11.0047 3.07764 11.4881 3.16536 11.8999 3.34082C12.3117 3.5127 12.6286 3.75439 12.8506 4.06592C13.0762 4.37386 13.189 4.73551 13.189 5.15088V5.16162C13.189 5.48389 13.1174 5.76676 12.9741 6.01025C12.8309 6.25374 12.6375 6.45426 12.394 6.61182C12.1506 6.76937 11.8766 6.88037 11.5723 6.94482V6.97705C12.1488 7.03076 12.6107 7.21696 12.958 7.53564C13.3053 7.85433 13.479 8.27686 13.479 8.80322V8.81396C13.479 9.28304 13.3519 9.69482 13.0977 10.0493C12.847 10.4038 12.4961 10.6795 12.0449 10.8765C11.5938 11.0734 11.0656 11.1719 10.4604 11.1719ZM14.4238 11V9.90967L16.9214 7.44434C17.2866 7.09342 17.5695 6.80518 17.77 6.57959C17.9705 6.35042 18.1102 6.15169 18.189 5.9834C18.2677 5.81152 18.3071 5.63428 18.3071 5.45166V5.43555C18.3071 5.21354 18.2588 5.01839 18.1621 4.8501C18.069 4.6818 17.9329 4.55111 17.7539 4.45801C17.5749 4.36133 17.3618 4.31299 17.1147 4.31299C16.8641 4.31299 16.6421 4.3667 16.4487 4.47412C16.2554 4.57796 16.105 4.72298 15.9976 4.90918C15.8901 5.0918 15.8364 5.30664 15.8364 5.55371V5.58057H14.3379L14.3325 5.55371C14.3325 5.05957 14.4525 4.62451 14.6924 4.24854C14.9359 3.87256 15.2707 3.57894 15.6968 3.36768C16.1265 3.15641 16.6242 3.05078 17.1899 3.05078C17.7235 3.05078 18.1925 3.14567 18.5972 3.33545C19.0054 3.52523 19.3241 3.78841 19.5532 4.125C19.786 4.46159 19.9023 4.85368 19.9023 5.30127V5.31738C19.9023 5.611 19.8451 5.89925 19.7305 6.18213C19.6159 6.46143 19.4225 6.764 19.1504 7.08984C18.8783 7.41569 18.5059 7.79704 18.0332 8.23389L16.1641 9.97949L16.5991 9.27051V9.97949L16.1641 9.69482H20.0151V11H14.4238Z" fill="black"/>
</svg>
