<svg width="37" height="37" viewBox="0 0 37 37" fill="none" xmlns="http://www.w3.org/2000/svg">
<path fill-rule="evenodd" clip-rule="evenodd" d="M21.4855 6.8665C22.0799 6.62454 22.717 6.5 23.3604 6.5C24.0039 6.5 24.641 6.62454 25.2354 6.8665C25.8298 7.10846 26.3699 7.46311 26.8249 7.91019C27.2798 8.35728 27.6407 8.88805 27.887 9.47219C28.1332 10.0563 28.2599 10.6824 28.2599 11.3147C28.2599 11.947 28.1332 12.5731 27.887 13.1572C27.6407 13.7414 27.2798 14.2721 26.8249 14.7192L12.7537 28.5469C12.5457 28.7513 12.2636 28.8661 11.9695 28.8661H6.60906C5.99654 28.8661 5.5 28.3782 5.5 27.7763V22.5086C5.5 22.2195 5.61685 21.9423 5.82484 21.7379L19.896 7.91019C20.351 7.46311 20.8911 7.10846 21.4855 6.8665ZM19.3401 11.5391L7.71811 22.96V26.6864H11.5101L23.1321 15.2655L19.3401 11.5391ZM24.7006 13.7242L20.9086 9.99777L21.4644 9.4515C21.7134 9.20682 22.009 9.01273 22.3343 8.88031C22.6597 8.7479 23.0083 8.67974 23.3604 8.67974C23.7126 8.67974 24.0612 8.7479 24.3866 8.88031C24.7119 9.01273 25.0075 9.20682 25.2564 9.4515C25.5054 9.69618 25.7029 9.98666 25.8377 10.3063C25.9724 10.626 26.0418 10.9687 26.0418 11.3147C26.0418 11.6607 25.9724 12.0034 25.8377 12.3231C25.7029 12.6427 25.5054 12.9332 25.2564 13.1779L24.7006 13.7242ZM22.2514 23.8255C22.2514 23.2236 22.7479 22.7356 23.3604 22.7356H29.3909C30.0035 22.7356 30.5 23.2236 30.5 23.8255V29.7517C30.5 30.3536 30.0035 30.8415 29.3909 30.8415C28.7784 30.8415 28.2819 30.3536 28.2819 29.7517V26.4567L23.4746 31.1808C23.0415 31.6064 22.3393 31.6064 21.9062 31.1808C21.4731 30.7552 21.4731 30.0651 21.9062 29.6395L26.7134 24.9154H23.3604C22.7479 24.9154 22.2514 24.4274 22.2514 23.8255Z" fill="#989898" stroke="#A492D4" stroke-width="0.2" stroke-linecap="round" stroke-linejoin="round"/>
</svg>
